# AST/ASF file generated using VICON BodyLanguage
# -----------------------------------------------
:version 1.10
:name VICON
:units
  mass 1.0
  length 0.45
  angle deg
:documentation
   .ast/.asf automatically generated from VICON data using
   VICON BodyBuilder and BodyLanguage model FoxedUp or BRILLIANT.MOD
:root
   order TX TY TZ RX RY RZ
   axis XYZ
   position 0 0 0  
   orientation 0 0 0 
:bonedata
  begin
     id 1 
     name lhipjoint
     direction 0.627457 -0.725269 0.283342 
     length 2.53237 
     axis 0 0 0  XYZ
  end
  begin
     id 2 
     name lfemur
     direction 0.34202 -0.939693 0  
     length 7.32496  
     axis 0 0 20  XYZ
    dof rx ry rz
    limits (-160.0 20.0)
           (-70.0 70.0)
           (-60.0 70.0)
  end
  begin
     id 3 
     name ltibia
     direction 0.34202 -0.939693 0   
     length 7.69674   
     axis 0 0 20   XYZ
    dof rx
    limits (-10.0 170.0)
  end
  begin
     id 4 
     name lfoot
     direction 0.127289 -0.349722 0.928166   
     length 1.8612   
     axis -90 7.62852e-016 20   XYZ
    dof rx rz
    limits (-45.0 90.0)
           (-70.0 20.0)
  end
  begin
     id 5 
     name ltoes
     direction 1.53561e-011 -4.21864e-011 1   
     length 0.925608   
     axis -90 7.62852e-016 20   XYZ
    dof rx
    limits (-90.0 20.0)
  end
  begin
     id 6 
     name rhipjoint
     direction -0.609094 -0.738725 0.288599   
     length 2.48624  
     axis 0 0 0  XYZ 
  end
  begin
     id 7 
     name rfemur
     direction -0.34202 -0.939693 0   
     length 7.44259   
     axis 0 0 -20   XYZ
    dof rx ry rz
    limits (-160.0 20.0)
           (-70.0 70.0)
           (-70.0 60.0)
  end
  begin
     id 8 
     name rtibia
     direction -0.34202 -0.939693 0   
     length 7.7781   
     axis 0 0 -20   XYZ
    dof rx
    limits (-10.0 170.0)
 end
 begin
     id 9 
     name rfoot
     direction -0.107015 -0.294021 0.949789   
     length 2.14741  
     axis -90 -7.62852e-016 -20   XYZ
    dof rx rz
    limits (-45.0 90.0)
           (-20.0 70.0)
  end
  begin
     id 10 
     name rtoes
     direction -1.53497e-011 -4.21924e-011 1   
     length 1.0706   
     axis -90 -7.62852e-016 -20   XYZ
    dof rx
    limits (-90.0 20.0)
  end
  begin
     id 11 
     name lowerback
     direction -0.0142066 0.998112 -0.0597545   
     length 1.86627   
     axis 0 0 0   XYZ
    dof rx ry rz
    limits (-20.0 45.0)
           (-30.0 30.0)
           (-30.0 30.0)
  end
  begin
     id 12 
     name upperback
     direction 0.00547294 0.999744 0.0219437   
     length 1.86272   
     axis 0 0 0   XYZ
    dof rx ry rz
    limits (-20.0 45.0)
           (-30.0 30.0)
           (-30.0 30.0)
  end
  begin
     id 13 
     name thorax
     direction 0.0116162 0.998704 0.0495538   
     length 1.8703   
     axis 0 0 0   XYZ
    dof rx ry rz
    limits (-20.0 45.0)
           (-30.0 30.0)
           (-30.0 30.0)
  end
  begin
     id 14 
     name lowerneck
     direction -0.0106574 0.998739 0.0490586   
     length 1.8074   
     axis 0 0 0   XYZ
    dof rx ry rz
    limits (-20.0 45.0)
           (-30.0 30.0)
           (-30.0 30.0)
  end
  begin
     id 15 
     name upperneck
     direction 0.030527 0.976587 -0.212944   
     length 1.80681   
     axis 0 0 0   XYZ
    dof rx ry rz
    limits (-20.0 45.0)
           (-30.0 30.0)
           (-30.0 30.0)
  end
  begin
     id 16
     name head
     direction 0.00869225 0.997035 -0.0764531  
     length 1.8313  
     axis 0 0 0   XYZ
    dof rx ry rz
    limits (-20.0 45.0)
           (-30.0 30.0)
           (-30.0 30.0)
  end
  begin
     id 17 
     name lclavicle
     direction 0.915958 0.399447 0.0382386  
     length 3.78965  
     axis 0 0 0   XYZ
    dof ry rz
    limits (-20.0 10.0)
           (0.0 20.0)
  end
  begin
     id 18 
     name lhumerus
     direction 1 -4.48967e-011 3.19303e-027   
     length 4.78095   
     axis -180 -30 -90   XYZ
    dof rx ry rz
    limits (-60.0 90.0)
           (-90.0 90.0)
           (-90.0 90.0)
  end
  begin
     id 19
     name lradius
     direction 1 -4.48967e-011 -3.77974e-027   
     length 3.58615   
     axis -180 -30 -90   XYZ
    dof rx
    limits (-10.0 170.0)
  end
  begin
     id 20
     name lwrist
     direction 1 -4.48927e-011 1.2807e-027   
     length 1.79307   
     axis 1.91374e-015 90 90   XYZ
    dof ry
    limits (-180.0 0.0)
 end
  begin
     id 21 
     name lhand
     direction 1 -4.49036e-011 2.5614e-027   
     length 0.659812   
     axis -1.63439e-015 90 90   XYZ
    dof rx rz
    limits (-90.0 90.0)
           (-45.0 45.0)
  end
  begin
     id 22 
     name lfingers
     direction 1 -4.49052e-011 5.1228e-027   
     length 0.531957   
     axis -3.26879e-015 90 90   XYZ
    dof rx
    limits (0.0 90.0)
  end
  begin
     id 23
     name lthumb
     direction 0.707107 -6.35012e-011 0.707107   
     length 0.763787   
     axis -90 45 2.85299e-015   XYZ
    dof rx rz
    limits (-45.0 45.0)
           (-45.0 45.0)
  end
  begin
     id 24 
     name rclavicle
     direction -0.895351 0.435135 0.0948887   
     length 3.70497  
     axis 0 0 0   XYZ 
    dof ry rz
    limits (-10.0 20.0)
           (-20.0 0.0)
  end
  begin
     id 25 
     name rhumerus
     direction -1 -4.48971e-011 2.38946e-027  
     length 4.48913   
     axis -180 30 90   XYZ
    dof rx ry rz
    limits (-90.0 60.0)
           (-90.0 90.0)
           (-90.0 90.0)
  end
  begin
     id 26 
     name rradius
     direction -1 -4.4895e-011 4.38668e-027   
     length 3.7051   
     axis -180 30 90   XYZ
    dof rx
    limits (-10.0 170.0)
  end
  begin
     id 27 
     name rwrist
     direction -1 -4.49007e-011 1.2807e-027   
     length 1.85255   
     axis 1.91374e-015 -90 -90   XYZ
    dof ry
    limits (-180.0 0.0)
  end
  begin
     id 28
     name rhand
     direction -1 -4.48851e-011 2.5614e-027   
     length 0.449136   
     axis -1.63439e-015 -90 -90   XYZ
    dof rx rz
    limits (-90.0 90.0)
           (-45.0 45.0)
  end
  begin
     id 29
     name rfingers
     direction -1 -4.49128e-011 5.1228e-027   
     length 0.362105   
     axis -3.26879e-015 -90 -90   XYZ
    dof rx
    limits (0.0 90.0)
  end
  begin
     id 30
     name rthumb
     direction -0.707107 -6.34851e-011 0.707107   
     length 0.519912   
     axis -90 -45 -2.85299e-015   XYZ
    dof rx rz
    limits (-45.0 45.0)
           (-45.0 45.0)
  end
:hierarchy
  begin
    root lhipjoint rhipjoint lowerback
    lhipjoint lfemur
    lfemur ltibia
    ltibia lfoot
    lfoot ltoes
    rhipjoint rfemur
    rfemur rtibia
    rtibia rfoot
    rfoot rtoes
    lowerback upperback
    upperback thorax
    thorax lowerneck lclavicle rclavicle
    lowerneck upperneck
    upperneck head
    lclavicle lhumerus
    lhumerus lradius
    lradius lwrist
    lwrist lhand lthumb
    lhand lfingers
    rclavicle rhumerus
    rhumerus rradius
    rradius rwrist
    rwrist rhand rthumb
    rhand rfingers
  end

#!OML:ASF I:\Actors\actors\Patient Classification 2\Patient 1\Session 1\actor1.ASF
:FULLY-SPECIFIED
:DEGREES
51
root -0.737832 18.7098 5.85892 3.01571 -2.18174 -0.977135
lowerback 0.113466 -0.0496486 -1.78061
upperback -2.49996 -0.0857633 0.398588
thorax -2.62547 0.00127918 1.40901
lowerneck -12.7072 -0.950799 -1.04396
upperneck 24.0402 -2.0317 3.6075
head 9.75306 -0.636993 1.1871
rclavicle 2.99419e-015 1.98785e-016
rhumerus -45.228 -3.10269 -87.5469
rradius 38.473
rwrist 21.2831
rhand -7.98945 -29.9885
rfingers 7.12502
rthumb 17.919 -59.183
lclavicle 2.99419e-015 1.98785e-016
lhumerus -41.8021 4.54591 89.4417
lradius 36.8203
lwrist -7.63812
lhand -3.71685 -23.258
lfingers 7.12502
lthumb 22.0258 5.5078
rfemur 5.33906 2.72027 15.0127
rtibia 1.59028e-014
rfoot -17.3348 -10.1636
rtoes -1.86586
lfemur -5.05272 -7.67073 -13.2175
ltibia 19.9872
lfoot -22.992 15.1394
ltoes -55.3208
52
root -0.737347 18.709 5.85723 3.00455 -2.20627 -0.969187
lowerback 0.113066 -0.0357682 -1.79349
upperback -2.48645 -0.0673764 0.396636
thorax -2.61203 0.0104909 1.41377
lowerneck -12.7231 -0.955931 -1.02017
upperneck 24.0666 -2.0379 3.57797
head 9.7651 -0.640582 1.17218
rclavicle 2.04997e-015 -5.96354e-016
rhumerus -45.2175 -3.09549 -87.5459
rradius 38.4785
rwrist 21.2701
rhand -7.81655 -30.0278
rfingers 7.12502
rthumb 18.0853 -59.207
lclavicle 2.04997e-015 -5.96354e-016
lhumerus -41.8156 4.53943 89.4635
lradius 36.88
lwrist -7.62127
lhand -3.73638 -23.1936
lfingers 7.12502
lthumb 22.0071 5.57438
rfemur 5.34072 2.74523 15
rtibia -4.77083e-015
rfoot -17.3394 -10.1609
rtoes -1.86382
lfemur -5.02904 -7.73963 -13.2377
ltibia 19.9609
lfoot -23.0112 15.1953
ltoes -55.266
53
root -0.737046 18.709 5.85561 2.99608 -2.22117 -0.956864
lowerback 0.120881 -0.0323879 -1.81124
upperback -2.48752 -0.0634432 0.390159
thorax -2.6177 0.0128314 1.41699
lowerneck -12.6884 -0.945039 -0.96456
upperneck 24.0784 -2.02466 3.53346
head 9.7613 -0.634664 1.14896
rclavicle -2.34193e-015 -7.7526e-015
rhumerus -45.2318 -3.09318 -87.5588
rradius 38.4811
rwrist 21.2657
rhand -7.67821 -30.025
rfingers 7.12502
rthumb 18.2184 -59.1918
lclavicle -2.34193e-015 -7.7526e-015
lhumerus -41.8353 4.50032 89.4782
lradius 36.9014
lwrist -7.52536
lhand -3.74587 -23.1418
lfingers 7.12502
lthumb 21.998 5.62724
rfemur 5.3377 2.76016 14.9857
rtibia -1.59028e-015
rfoot -17.315 -10.1727
rtoes -1.98076
lfemur -5.01778 -7.71136 -13.2551
ltibia 19.947
lfoot -22.9698 15.2506
ltoes -55.382
54
root -0.736428 18.7098 5.85442 2.99014 -2.21957 -0.950478
lowerback 0.110564 -0.0298919 -1.81241
upperback -2.48742 -0.0601817 0.37906
thorax -2.61192 0.0142936 1.40615
lowerneck -12.633 -0.937509 -0.969915
upperneck 24.0829 -2.02074 3.56419
head 9.75261 -0.630418 1.16123
rclavicle 1.75427e-014 -1.41137e-014
rhumerus -45.2464 -3.11452 -87.5694
rradius 38.4754
rwrist 21.2543
rhand -7.66982 -30.0659
rfingers 7.12502
rthumb 18.2265 -59.232
lclavicle 1.75427e-014 -1.41137e-014
lhumerus -41.8715 4.39443 89.5026
lradius 36.9477
lwrist -7.40159
lhand -3.71093 -23.0239
lfingers 7.12502
lthumb 22.0315 5.74117
rfemur 5.33784 2.75876 14.9771
rtibia -2.54444e-014
rfoot -17.2959 -10.1897
rtoes -2.16761
lfemur -5.01926 -7.64272 -13.2639
ltibia 19.9452
lfoot -22.8652 15.2602
ltoes -55.5585
55
root -0.735891 18.7101 5.85326 2.98176 -2.19537 -0.953977
lowerback 0.100178 -0.0292258 -1.81153
upperback -2.4814 -0.0591273 0.374765
thorax -2.59989 0.0145875 1.4012
lowerneck -12.6491 -0.950734 -1.01832
upperneck 24.1408 -2.04573 3.62498
head 9.77813 -0.638796 1.1881
rclavicle 3.93221e-015 -2.38542e-015
rhumerus -45.247 -3.14623 -87.5648
rradius 38.4573
rwrist 21.2179
rhand -7.74305 -30.0833
rfingers 7.12502
rthumb 18.1561 -59.2559
lclavicle 3.93221e-015 -2.38542e-015
lhumerus -41.903 4.31409 89.5264
lradius 36.9856
lwrist -7.36693
lhand -3.70642 -22.935
lfingers 7.12502
lthumb 22.0359 5.82957
rfemur 5.35001 2.73561 14.9789
rtibia -2.38542e-014
rfoot -17.3061 -10.1786
rtoes -2.18117
lfemur -5.02005 -7.68714 -13.2637
ltibia 19.9536
lfoot -22.859 15.2284
ltoes -55.481
